# Blender v2.91.0 OBJ File: ''
# www.blender.org
mtllib bouncer_flip.mtl
o bouncer
v 0.000000 0.000000 0.000000
v 2.988917 -0.039307 0.734867
v 2.439966 1.724365 0.734867
v -2.988917 0.039307 0.734867
v -2.439966 -1.724365 0.734867
v -5.754302 -4.179996 4.593764
v -7.115573 0.000972 4.593765
v -5.662655 -4.114279 6.162052
v 5.753159 -4.181569 4.593764
v 2.195367 -6.760510 4.593764
v 5.662345 -4.114706 6.162052
v 2.913353 -2.117136 6.546736
v 1.111937 -3.423164 6.546735
v 0.000000 -0.000001 6.703289
v 3.603048 -0.000189 6.546736
v 7.002750 -0.000265 6.162052
v 7.115573 -0.000972 4.593765
v 2.161216 -6.653103 6.162052
v -2.197215 -6.759911 4.593764
v -1.112295 -3.423048 6.546735
v -2.161718 -6.652940 6.162052
v -3.603048 0.000187 6.546736
v -2.913575 -2.116832 6.546736
v -7.002750 0.000263 6.162052
v 0.885214 -2.851778 0.734867
v 2.393776 -1.787933 0.734867
v 2.972597 -2.144966 4.093592
v 1.143491 -3.480468 4.093592
v 3.667364 0.012129 4.093592
v -0.959902 -2.827513 0.734867
v -1.120445 -3.487954 4.093592
v -2.958345 -2.164582 4.093592
v -3.667364 -0.012129 4.093592
v 5.662655 4.114278 6.162053
v 5.754302 4.179996 4.593765
v -5.753159 4.181568 4.593765
v -2.195367 6.760509 4.593765
v -5.662345 4.114705 6.162053
v -2.913353 2.117136 6.546736
v -1.111937 3.423163 6.546736
v -2.161216 6.653102 6.162053
v 2.197215 6.759910 4.593765
v 1.112295 3.423048 6.546736
v 2.161718 6.652939 6.162053
v 2.913575 2.116832 6.546736
v -0.885214 2.851778 0.734867
v -2.393776 1.787933 0.734867
v -2.972597 2.144965 4.093592
v -1.143491 3.480467 4.093593
v 0.959902 2.827513 0.734867
v 1.120445 3.487953 4.093593
v 2.958345 2.164581 4.093592
vt 1.000000 1.000000
vt 0.794821 1.000000
vt 0.794821 0.900032
vt 1.000000 0.500000
vt 0.794821 0.500000
vt 0.794821 0.400032
vt 0.359509 0.400032
vt 0.359509 0.500000
vt 0.116124 0.400032
vt 0.359509 0.099968
vt 0.359509 0.199981
vt 0.116124 0.099968
vt 0.046200 0.099968
vt 0.046200 0.199981
vt 0.000000 0.099968
vt 0.000000 0.000000
vt 0.046200 0.000000
vt 0.116124 0.000000
vt 0.359509 0.000000
vt 0.116124 0.199981
vt 0.359509 0.300019
vt 0.046200 0.300019
vt 0.000000 0.199981
vt 0.116124 0.300019
vt 0.046200 0.500000
vt 0.000000 0.400032
vt 0.046200 0.400032
vt 0.000000 0.300019
vt 0.116124 0.500000
vt 1.000000 0.199981
vt 0.794821 0.199981
vt 0.794821 0.099968
vt 0.604800 0.099968
vt 0.604800 0.199981
vt 0.604800 0.000000
vt 0.794821 0.000000
vt 1.000000 0.099968
vt 1.000000 0.300019
vt 0.794821 0.300019
vt 0.604800 0.300019
vt 0.604800 0.400032
vt 0.604800 0.500000
vt 1.000000 0.400032
vt 0.116124 0.900032
vt 0.359509 0.900032
vt 0.359509 1.000000
vt 0.359509 0.599968
vt 0.359509 0.699981
vt 0.116124 0.599968
vt 0.000000 0.599968
vt 0.046200 0.599968
vt 0.046200 0.699981
vt 0.000000 0.500000
vt 0.116124 0.699981
vt 0.359509 0.800019
vt 0.000000 0.699981
vt 0.046200 0.800019
vt 0.116124 0.800019
vt 0.046200 1.000000
vt 0.000000 0.900032
vt 0.046200 0.900032
vt 0.000000 0.800019
vt 0.116124 1.000000
vt 1.000000 0.699981
vt 0.794821 0.699981
vt 0.794821 0.599968
vt 0.604800 0.599968
vt 0.604800 0.699981
vt 1.000000 0.599968
vt 1.000000 0.800019
vt 0.794821 0.800019
vt 0.604800 0.800019
vt 0.604800 0.900032
vt 0.604800 1.000000
vt 1.000000 0.900032
vn 0.0000 -0.0000 1.0000
vn -0.8035 0.0013 0.5953
vn -0.6505 -0.4717 0.5953
vn 0.8035 -0.0013 0.5953
vn 0.6505 0.4717 0.5953
vn 0.5009 0.3678 0.7835
vn 0.6213 0.0027 0.7836
vn 0.4776 0.3427 -0.8090
vn -0.5040 0.3633 0.7836
vn -0.1944 0.5902 0.7835
vn -0.4731 0.3491 -0.8089
vn -0.0681 0.0559 -0.9961
vn -0.0223 0.0853 -0.9961
vn -0.0000 0.0000 -1.0000
vn -0.0880 0.0051 -0.9961
vn -0.5878 0.0039 -0.8090
vn -0.6213 -0.0027 0.7836
vn -0.1777 0.5605 -0.8089
vn 0.1892 0.5919 0.7835
vn 0.0320 0.0822 -0.9961
vn 0.1851 0.5580 -0.8089
vn 0.0880 -0.0051 -0.9961
vn 0.0741 0.0477 -0.9961
vn 0.5878 -0.0039 -0.8090
vn -0.2467 0.7648 0.5952
vn -0.6489 0.4739 0.5952
vn -0.4531 0.3124 0.8349
vn -0.1832 0.5194 0.8347
vn -0.5499 -0.0141 0.8351
vn 0.2493 0.7640 0.5952
vn 0.1566 0.5280 0.8347
vn 0.4366 0.3351 0.8349
vn 0.5499 0.0140 0.8351
vn -0.4776 -0.3427 -0.8090
vn -0.5009 -0.3678 0.7835
vn 0.5040 -0.3633 0.7836
vn 0.1944 -0.5902 0.7835
vn 0.4731 -0.3491 -0.8089
vn 0.0681 -0.0559 -0.9961
vn 0.0223 -0.0853 -0.9961
vn 0.1777 -0.5605 -0.8089
vn -0.1892 -0.5919 0.7835
vn -0.0320 -0.0822 -0.9961
vn -0.1851 -0.5580 -0.8089
vn -0.0741 -0.0477 -0.9961
vn 0.2467 -0.7648 0.5952
vn 0.6489 -0.4739 0.5952
vn 0.4531 -0.3124 0.8349
vn 0.1832 -0.5194 0.8347
vn -0.2493 -0.7640 0.5952
vn -0.1566 -0.5280 0.8347
vn -0.4366 -0.3351 0.8349
usemtl initialShadingGroup.001
s 1
f 1/1/1 2/2/2 3/3/3
f 1/4/1 4/5/4 5/6/5
f 6/7/6 7/8/7 8/9/8
f 9/10/9 10/11/10 11/12/11
f 12/13/12 13/14/13 14/15/14
f 14/16/14 15/17/15 12/13/12
f 16/18/16 17/19/17 9/10/9
f 15/17/15 16/18/16 11/12/11
f 12/13/12 11/12/11 18/20/18
f 10/11/10 19/21/19 18/20/18
f 20/22/20 14/23/14 13/14/13
f 13/14/13 18/20/18 21/24/21
f 22/25/22 14/26/14 23/27/23
f 14/28/14 20/22/20 23/27/23
f 19/21/19 6/7/6 21/24/21
f 20/22/20 21/24/21 8/9/8
f 23/27/23 8/9/8 24/29/24
f 1/30/1 25/31/25 26/32/26
f 27/33/27 28/34/28 9/10/9
f 17/19/17 29/35/29 27/33/27
f 2/36/2 1/37/1 26/32/26
f 29/35/29 2/36/2 26/32/26
f 27/33/27 26/32/26 25/31/25
f 1/38/1 30/39/30 25/31/25
f 10/11/10 28/34/28 31/40/31
f 28/34/28 25/31/25 30/39/30
f 6/7/6 32/41/32 33/42/33
f 19/21/19 31/40/31 32/41/32
f 1/43/1 5/6/5 30/39/30
f 31/40/31 30/39/30 5/6/5
f 32/41/32 5/6/5 4/5/4
f 34/44/34 35/45/35 17/46/17
f 36/47/36 37/48/37 38/49/38
f 14/50/14 39/51/39 40/52/40
f 14/53/14 22/25/22 39/51/39
f 24/29/24 7/8/7 36/47/36
f 22/25/22 24/29/24 38/49/38
f 39/51/39 38/49/38 41/54/41
f 41/54/41 37/48/37 42/55/42
f 14/56/14 40/52/40 43/57/43
f 40/52/40 41/54/41 44/58/44
f 15/59/15 14/60/14 45/61/45
f 14/62/14 43/57/43 45/61/45
f 44/58/44 42/55/42 35/45/35
f 43/57/43 44/58/44 34/44/34
f 45/61/45 34/44/34 16/63/16
f 1/64/1 46/65/46 47/66/47
f 36/47/36 48/67/48 49/68/49
f 7/8/7 33/42/33 48/67/48
f 1/69/1 47/66/47 4/5/4
f 33/42/33 4/5/4 47/66/47
f 48/67/48 47/66/47 46/65/46
f 1/70/1 50/71/50 46/65/46
f 37/48/37 49/68/49 51/72/51
f 49/68/49 46/65/46 50/71/50
f 35/45/35 52/73/52 29/74/29
f 42/55/42 51/72/51 52/73/52
f 1/75/1 3/3/3 50/71/50
f 51/72/51 50/71/50 3/3/3
f 52/73/52 3/3/3 2/2/2
f 7/8/7 24/29/24 8/9/8
f 10/11/10 18/20/18 11/12/11
f 9/10/9 11/12/11 16/18/16
f 11/12/11 12/13/12 15/17/15
f 18/20/18 13/14/13 12/13/12
f 19/21/19 21/24/21 18/20/18
f 21/24/21 20/22/20 13/14/13
f 6/7/6 8/9/8 21/24/21
f 8/9/8 23/27/23 20/22/20
f 24/29/24 22/25/22 23/27/23
f 28/34/28 10/11/10 9/10/9
f 27/33/27 9/10/9 17/19/17
f 26/32/26 27/33/27 29/35/29
f 25/31/25 28/34/28 27/33/27
f 31/40/31 19/21/19 10/11/10
f 30/39/30 31/40/31 28/34/28
f 33/42/33 7/8/7 6/7/6
f 32/41/32 6/7/6 19/21/19
f 5/6/5 32/41/32 31/40/31
f 4/5/4 33/42/33 32/41/32
f 17/46/17 16/63/16 34/44/34
f 37/48/37 41/54/41 38/49/38
f 36/47/36 38/49/38 24/29/24
f 38/49/38 39/51/39 22/25/22
f 41/54/41 40/52/40 39/51/39
f 42/55/42 44/58/44 41/54/41
f 44/58/44 43/57/43 40/52/40
f 35/45/35 34/44/34 44/58/44
f 34/44/34 45/61/45 43/57/43
f 16/63/16 15/59/15 45/61/45
f 49/68/49 37/48/37 36/47/36
f 48/67/48 36/47/36 7/8/7
f 47/66/47 48/67/48 33/42/33
f 46/65/46 49/68/49 48/67/48
f 51/72/51 42/55/42 37/48/37
f 50/71/50 51/72/51 49/68/49
f 29/74/29 17/46/17 35/45/35
f 52/73/52 35/45/35 42/55/42
f 3/3/3 52/73/52 51/72/51
f 2/2/2 29/74/29 52/73/52
