# Blender v2.91.0 OBJ File: ''
# www.blender.org
mtllib mushroom_flip.mtl
o mushroom
v 0.000000 0.000000 0.000000
v 0.682970 -0.000000 0.665001
v 0.425722 0.533813 0.665001
v 1.253820 1.572164 3.263380
v 2.011455 -0.000000 3.263380
v 1.599144 2.005165 4.152171
v -0.447180 -1.959546 3.263380
v -1.810238 -0.871813 3.263380
v -0.570341 -2.499239 4.152171
v -0.466819 -2.045604 5.209850
v -1.889739 -0.910100 5.209850
v -0.255316 -1.118794 5.865388
v 1.148431 -0.000001 5.865388
v 2.099792 -0.000000 5.209850
v 1.308884 -1.641209 5.209850
v 0.000000 -0.000001 6.000000
v 0.715863 -0.897621 5.865388
v -1.033547 -0.497759 5.865388
v 2.565444 -0.000000 4.152171
v 1.253820 -1.572164 3.263380
v 1.599144 -2.005166 4.152171
v -2.308810 -1.111925 4.152171
v -1.810238 0.871813 3.263380
v -0.447180 1.959546 3.263380
v -2.308810 1.111925 4.152171
v -1.033547 0.497757 5.865388
v -1.889739 0.910100 5.209850
v -0.466819 2.045604 5.209850
v -0.255316 1.118793 5.865388
v -0.570341 2.499238 4.152171
v 0.715863 0.897619 5.865388
v 1.308884 1.641209 5.209850
v -0.614648 -0.296015 0.665001
v -0.151836 -0.665344 0.665001
v -0.137165 -0.601058 1.824264
v -0.555260 -0.267414 1.824264
v -0.201410 -0.882581 2.923666
v 0.905961 -0.000000 2.923666
v 0.616980 -0.000000 1.824264
v 0.384588 -0.482235 1.824264
v 0.564721 -0.708104 2.923666
v -0.815333 -0.392665 2.923666
v 0.425722 -0.533813 0.665001
v -0.151836 0.665344 0.665001
v -0.614648 0.296015 0.665001
v -0.815333 0.392665 2.923666
v -0.555260 0.267414 1.824264
v -0.137165 0.601058 1.824264
v -0.201410 0.882581 2.923666
v 0.564721 0.708104 2.923666
v 0.384588 0.482235 1.824264
vt 1.000000 1.000000
vt 0.701789 1.000000
vt 0.701789 0.857113
vt 0.331014 0.857113
vt 0.331014 1.000000
vt 0.221529 0.857113
vt 0.331014 0.285749
vt 0.331014 0.428585
vt 0.221529 0.285749
vt 0.140426 0.285749
vt 0.140426 0.428585
vt 0.068375 0.285749
vt 0.068375 0.000000
vt 0.140426 0.000000
vt 0.140426 0.142887
vt 0.000000 0.000000
vt 0.068375 0.142887
vt 0.000000 0.142887
vt 0.068375 0.428585
vt 0.000000 0.285749
vt 0.221529 0.000000
vt 0.331014 0.000000
vt 0.331014 0.142887
vt 0.221529 0.142887
vt 0.221529 0.428585
vt 0.331014 0.571415
vt 0.331014 0.714251
vt 0.221529 0.571415
vt 0.068375 0.571415
vt 0.140426 0.571415
vt 0.140426 0.714251
vt 0.000000 0.428585
vt 0.068375 0.714251
vt 0.000000 0.571415
vt 0.221529 0.714251
vt 0.068375 0.857113
vt 0.140426 0.857113
vt 0.140426 1.000000
vt 0.000000 0.714251
vt 0.068375 1.000000
vt 0.000000 0.857113
vt 0.221529 1.000000
vt 1.000000 0.428585
vt 0.701789 0.428585
vt 0.701789 0.285749
vt 0.561147 0.285749
vt 0.561147 0.428585
vt 0.442226 0.285749
vt 0.442226 0.000000
vt 0.561147 0.000000
vt 0.561147 0.142887
vt 0.442226 0.142887
vt 0.442226 0.428585
vt 0.701789 0.000000
vt 1.000000 0.142887
vt 0.701789 0.142887
vt 1.000000 0.285749
vt 1.000000 0.714251
vt 0.701789 0.714251
vt 0.701789 0.571415
vt 0.442226 0.571415
vt 0.561147 0.571415
vt 0.561147 0.714251
vt 0.442226 0.714251
vt 1.000000 0.571415
vt 0.442226 0.857113
vt 0.561147 0.857113
vt 0.561147 1.000000
vt 0.442226 1.000000
vt 1.000000 0.857113
vn -0.0002 0.0000 1.0000
vn -0.9603 0.0043 0.2790
vn -0.6019 -0.7483 0.2789
vn -0.4035 -0.5578 0.7253
vn -0.6876 -0.0321 0.7254
vn -0.6229 -0.7817 0.0311
vn 0.1220 0.6777 0.7252
vn 0.6059 0.3273 0.7251
vn 0.2228 0.9744 0.0312
vn 0.2142 0.7890 -0.5758
vn 0.7504 0.3246 -0.5757
vn 0.1378 0.4168 -0.8985
vn -0.4368 0.0414 -0.8986
vn -0.8167 0.0330 -0.5761
vn -0.4832 0.6593 -0.5760
vn 0.0001 0.0000 -1.0000
vn -0.2399 0.3675 -0.8986
vn 0.4118 0.1523 -0.8984
vn -0.9995 0.0000 0.0312
vn -0.4537 0.5178 0.7253
vn -0.6227 0.7818 0.0312
vn 0.9007 0.4333 0.0311
vn 0.6338 -0.2695 0.7251
vn 0.1846 -0.6634 0.7252
vn 0.9006 -0.4335 0.0311
vn 0.3759 -0.2269 -0.8985
vn 0.7218 -0.3841 -0.5757
vn 0.1498 -0.8037 -0.5759
vn 0.0570 -0.4352 -0.8985
vn 0.2223 -0.9745 0.0311
vn -0.3046 -0.3158 -0.8986
vn -0.5349 -0.6181 -0.5760
vn 0.8671 0.4128 0.2788
vn 0.2181 0.9352 0.2788
vn 0.2053 0.9727 0.1077
vn 0.8885 0.4461 0.1077
vn 0.0914 0.5732 0.8143
vn -0.5788 -0.0386 0.8146
vn -0.9940 -0.0166 0.1078
vn -0.6325 0.7670 0.1078
vn -0.3910 0.4286 0.8145
vn 0.5052 0.2861 0.8142
vn -0.5952 0.7536 0.2789
vn 0.2098 -0.9371 0.2788
vn 0.8634 -0.4204 0.2788
vn 0.5387 -0.2165 0.8142
vn 0.9029 -0.4162 0.1077
vn 0.2377 -0.9653 0.1077
vn 0.1667 -0.5560 0.8143
vn -0.3306 -0.4768 0.8145
vn -0.6066 -0.7877 0.1078
usemtl initialShadingGroup
s 1
f 1/1/1 2/2/2 3/3/3
f 4/4/4 5/5/5 6/6/6
f 7/7/7 8/8/8 9/9/9
f 10/10/10 11/11/11 12/12/12
f 13/13/13 14/14/14 15/15/15
f 16/16/16 13/13/13 17/17/17
f 15/15/15 10/10/10 17/17/17
f 12/12/12 16/18/16 17/17/17
f 18/19/18 16/20/16 12/12/12
f 19/21/19 5/22/5 20/23/20
f 14/14/14 19/21/19 21/24/21
f 20/23/20 7/7/7 21/24/21
f 15/15/15 21/24/21 9/9/9
f 10/10/10 9/9/9 22/25/22
f 23/26/23 24/27/24 25/28/25
f 26/29/26 27/30/27 28/31/28
f 18/19/18 11/11/11 27/30/27
f 16/32/16 18/19/18 26/29/26
f 29/33/29 16/34/16 26/29/26
f 8/8/8 23/26/23 22/25/22
f 11/11/11 22/25/22 25/28/25
f 27/30/27 25/28/25 30/35/30
f 31/36/31 32/37/32 14/38/14
f 29/33/29 28/31/28 32/37/32
f 16/39/16 29/33/29 31/36/31
f 13/40/13 16/41/16 31/36/31
f 24/27/24 4/4/4 30/35/30
f 28/31/28 30/35/30 6/6/6
f 32/37/32 6/6/6 19/42/19
f 1/43/1 33/44/33 34/45/34
f 35/46/35 36/47/36 37/48/37
f 38/49/38 39/50/39 40/51/40
f 5/22/5 38/49/38 41/52/41
f 40/51/40 35/46/35 41/52/41
f 20/23/20 41/52/41 37/48/37
f 7/7/7 37/48/37 42/53/42
f 2/54/2 1/55/1 43/56/43
f 39/50/39 2/54/2 43/56/43
f 1/57/1 34/45/34 43/56/43
f 40/51/40 43/56/43 34/45/34
f 35/46/35 34/45/34 33/44/33
f 1/58/1 44/59/44 45/60/45
f 46/61/46 47/62/47 48/63/48
f 42/53/42 36/47/36 47/62/47
f 8/8/8 42/53/42 46/61/46
f 23/26/23 46/61/46 49/64/49
f 1/65/1 45/60/45 33/44/33
f 36/47/36 33/44/33 45/60/45
f 47/62/47 45/60/45 44/59/44
f 50/66/50 51/67/51 39/68/39
f 49/64/49 48/63/48 51/67/51
f 24/27/24 49/64/49 50/66/50
f 4/4/4 50/66/50 38/69/38
f 1/70/1 3/3/3 44/59/44
f 48/63/48 44/59/44 3/3/3
f 51/67/51 3/3/3 2/2/2
f 5/5/5 19/42/19 6/6/6
f 8/8/8 22/25/22 9/9/9
f 11/11/11 18/19/18 12/12/12
f 15/15/15 17/17/17 13/13/13
f 10/10/10 12/12/12 17/17/17
f 20/23/20 21/24/21 19/21/19
f 21/24/21 15/15/15 14/14/14
f 7/7/7 9/9/9 21/24/21
f 9/9/9 10/10/10 15/15/15
f 22/25/22 11/11/11 10/10/10
f 24/27/24 30/35/30 25/28/25
f 28/31/28 29/33/29 26/29/26
f 27/30/27 26/29/26 18/19/18
f 23/26/23 25/28/25 22/25/22
f 25/28/25 27/30/27 11/11/11
f 30/35/30 28/31/28 27/30/27
f 14/38/14 13/40/13 31/36/31
f 32/37/32 31/36/31 29/33/29
f 4/4/4 6/6/6 30/35/30
f 6/6/6 32/37/32 28/31/28
f 19/42/19 14/38/14 32/37/32
f 36/47/36 42/53/42 37/48/37
f 40/51/40 41/52/41 38/49/38
f 41/52/41 20/23/20 5/22/5
f 35/46/35 37/48/37 41/52/41
f 37/48/37 7/7/7 20/23/20
f 42/53/42 8/8/8 7/7/7
f 43/56/43 40/51/40 39/50/39
f 34/45/34 35/46/35 40/51/40
f 33/44/33 36/47/36 35/46/35
f 48/63/48 49/64/49 46/61/46
f 47/62/47 46/61/46 42/53/42
f 46/61/46 23/26/23 8/8/8
f 49/64/49 24/27/24 23/26/23
f 45/60/45 47/62/47 36/47/36
f 44/59/44 48/63/48 47/62/47
f 39/68/39 38/69/38 50/66/50
f 51/67/51 50/66/50 49/64/49
f 50/66/50 4/4/4 24/27/24
f 38/69/38 5/5/5 4/4/4
f 3/3/3 51/67/51 48/63/48
f 2/2/2 39/68/39 51/67/51
