# This file uses centimeters as units for non-parametric coordinates.

mtllib nail5.mtl
g default
v 0.038983 0.570725 0.000000
v 0.054737 0.826309 0.000000
v -0.045485 0.826309 -0.000000
v 0.098197 0.971612 0.000000
v -0.088945 0.971612 -0.000000
v 0.051372 0.971612 0.080960
v 0.059821 1.002394 0.000000
v 0.032200 1.002394 0.047756
v -0.042120 0.971612 0.080960
v -0.022948 1.002394 0.047756
v -0.050569 1.002394 -0.000000
v 0.029660 0.826309 0.043357
v 0.101852 0.916208 0.000000
v 0.053198 0.916208 0.084122
v 0.092561 0.861458 0.000000
v 0.048556 0.861458 0.076083
v -0.092600 0.916208 -0.000000
v -0.043946 0.916208 0.084122
v -0.020408 0.826309 0.043357
v -0.039304 0.861458 0.076083
v -0.083309 0.861458 -0.000000
v -0.042120 0.971612 -0.080960
v -0.022948 1.002394 -0.047756
v 0.004626 1.000000 0.000000
v 0.051372 0.971612 -0.080960
v 0.032200 1.002394 -0.047756
v -0.020408 0.826309 -0.043357
v -0.043946 0.916208 -0.084122
v -0.039304 0.861458 -0.076083
v 0.053198 0.916208 -0.084122
v 0.029660 0.826309 -0.043357
v 0.048556 0.861458 -0.076083
v -0.029731 0.570725 -0.000000
v 0.036983 0.736880 0.000000
v -0.027731 0.736880 -0.000000
v 0.020791 0.736880 0.027996
v 0.035717 0.792355 0.000000
v 0.020158 0.792355 0.026901
v -0.011539 0.736880 0.027996
v -0.010906 0.792355 0.026901
v -0.026465 0.792355 -0.000000
v 0.021790 0.570725 0.029727
v 0.037880 0.682204 0.000000
v 0.021239 0.682204 0.028772
v 0.038501 0.626523 0.000000
v 0.021549 0.626523 0.029310
v -0.028628 0.682204 -0.000000
v -0.011987 0.682204 0.028772
v -0.012538 0.570725 0.029727
v -0.012297 0.626523 0.029310
v -0.029249 0.626523 -0.000000
v -0.011539 0.736880 -0.027996
v -0.010906 0.792355 -0.026901
v 0.020791 0.736880 -0.027996
v 0.020158 0.792355 -0.026901
v -0.012538 0.570725 -0.029727
v -0.011987 0.682204 -0.028772
v -0.012297 0.626523 -0.029310
v 0.021239 0.682204 -0.028772
v 0.021790 0.570725 -0.029727
v 0.021549 0.626523 -0.029310
v 0.040888 0.292517 0.000000
v -0.031636 0.292517 -0.000000
v 0.039763 0.459438 0.000000
v -0.030511 0.459438 -0.000000
v 0.022180 0.459438 0.030402
v 0.039393 0.514925 0.000000
v 0.021995 0.514925 0.030081
v -0.012928 0.459438 0.030402
v -0.012743 0.514925 0.030081
v -0.030141 0.514925 -0.000000
v 0.022741 0.292517 0.031374
v 0.040122 0.403890 0.000000
v 0.022359 0.403890 0.030712
v 0.040490 0.348164 0.000000
v 0.022543 0.348164 0.031030
v -0.030870 0.403890 -0.000000
v -0.013107 0.403890 0.030712
v -0.013489 0.292517 0.031374
v -0.013291 0.348164 0.031030
v -0.031238 0.348164 -0.000000
v -0.012928 0.459438 -0.030402
v -0.012743 0.514925 -0.030081
v 0.022180 0.459438 -0.030402
v 0.021995 0.514925 -0.030081
v -0.013489 0.292517 -0.031374
v -0.013107 0.403890 -0.030712
v -0.013291 0.348164 -0.031030
v 0.022359 0.403890 -0.030712
v 0.022741 0.292517 -0.031374
v 0.022543 0.348164 -0.031030
v 0.042695 0.125736 0.000000
v -0.033443 0.125736 -0.000000
v 0.023644 0.125736 0.032938
v 0.041344 0.237067 0.000000
v 0.022969 0.237067 0.031769
v 0.041908 0.181628 0.000000
v 0.023251 0.181628 0.032258
v -0.032092 0.237067 -0.000000
v -0.013717 0.237067 0.031769
v -0.014392 0.125736 0.032938
v -0.013999 0.181628 0.032258
v -0.032656 0.181628 -0.000000
v 0.043898 0.070411 0.000000
v 0.024245 0.070411 0.033979
v 0.045628 0.015173 0.000000
v 0.025110 0.015173 0.035476
v -0.034646 0.070411 0.000000
v -0.014993 0.070411 0.033979
v -0.015858 0.015173 0.035476
v -0.036376 0.015173 0.000000
v -0.014392 0.125736 -0.032938
v -0.013717 0.237067 -0.031769
v -0.013999 0.181628 -0.032258
v 0.022969 0.237067 -0.031769
v 0.023644 0.125736 -0.032938
v 0.023251 0.181628 -0.032258
v -0.014993 0.070411 -0.033979
v -0.015858 0.015173 -0.035476
v 0.024245 0.070411 -0.033979
v 0.004626 0.000000 0.000000
v 0.025110 0.015173 -0.035476
vt 0.607327 1.000000
vt 0.386609 1.000000
vt 0.386609 0.500000
vt 0.169435 0.000000
vt 0.169435 0.500000
vt 0.169435 0.166697
vt 0.079254 0.000000
vt 0.079254 0.166697
vt 0.169435 0.333303
vt 0.079254 0.333303
vt 0.079254 0.500000
vt 0.386609 0.166697
vt 0.224576 0.000000
vt 0.224576 0.166697
vt 0.280244 0.000000
vt 0.280244 0.166697
vt 0.224576 0.500000
vt 0.224576 0.333303
vt 0.386609 0.333303
vt 0.280244 0.333303
vt 0.280244 0.500000
vt 0.169435 0.666697
vt 0.079254 0.666697
vt 0.000000 0.000000
vt 0.169435 0.833303
vt 0.079254 0.833303
vt 0.386609 0.666697
vt 0.224576 0.666697
vt 0.280244 0.666697
vt 0.224576 0.833303
vt 0.386609 0.833303
vt 0.280244 0.833303
vt 0.607327 0.500000
vt 0.556572 0.000000
vt 0.556572 0.500000
vt 0.556572 0.166697
vt 0.525386 0.000000
vt 0.525386 0.166697
vt 0.556572 0.333303
vt 0.525386 0.333303
vt 0.525386 0.500000
vt 0.607327 0.166697
vt 0.576676 0.000000
vt 0.576676 0.166697
vt 0.592949 0.000000
vt 0.592949 0.166697
vt 0.576676 0.500000
vt 0.576676 0.333303
vt 0.607327 0.333303
vt 0.592949 0.333303
vt 0.592949 0.500000
vt 0.556572 0.666697
vt 0.525386 0.666697
vt 0.556572 0.833303
vt 0.525386 0.833303
vt 0.607327 0.666697
vt 0.576676 0.666697
vt 0.592949 0.666697
vt 0.576676 0.833303
vt 0.607327 0.833303
vt 0.592949 0.833303
vt 0.671658 1.000000
vt 0.671658 0.500000
vt 0.633444 0.000000
vt 0.633444 0.500000
vt 0.633444 0.166697
vt 0.620689 0.000000
vt 0.620689 0.166697
vt 0.633444 0.333303
vt 0.620689 0.333303
vt 0.620689 0.500000
vt 0.671658 0.166697
vt 0.646003 0.000000
vt 0.646003 0.166697
vt 0.658665 0.000000
vt 0.658665 0.166697
vt 0.646003 0.500000
vt 0.646003 0.333303
vt 0.671658 0.333303
vt 0.658665 0.333303
vt 0.658665 0.500000
vt 0.633444 0.666697
vt 0.620689 0.666697
vt 0.633444 0.833303
vt 0.620689 0.833303
vt 0.671658 0.666697
vt 0.646003 0.666697
vt 0.658665 0.666697
vt 0.646003 0.833303
vt 0.671658 0.833303
vt 0.658665 0.833303
vt 0.718162 0.000000
vt 0.718162 0.500000
vt 0.718162 0.166697
vt 0.685327 0.000000
vt 0.685327 0.166697
vt 0.700326 0.000000
vt 0.700326 0.166697
vt 0.685327 0.500000
vt 0.685327 0.333303
vt 0.718162 0.333303
vt 0.700326 0.333303
vt 0.700326 0.500000
vt 0.742032 0.000000
vt 0.742032 0.166697
vt 0.786866 1.000000
vt 0.786866 0.166697
vt 0.742032 0.500000
vt 0.742032 0.333303
vt 0.786866 0.333303
vt 0.786866 0.500000
vt 0.718162 0.666697
vt 0.685327 0.666697
vt 0.700326 0.666697
vt 0.685327 0.833303
vt 0.718162 0.833303
vt 0.700326 0.833303
vt 0.742032 0.666697
vt 0.786866 0.666697
vt 0.742032 0.833303
vt 1.000000 1.000000
vt 0.786866 0.833303
vt 0.000000 0.166697
vt 0.000000 0.333303
vt 0.386609 0.000000
vt 0.169435 1.000000
vt 0.000000 0.500000
vt 0.000000 0.666697
vt 0.079254 1.000000
vt 0.000000 0.833303
vt 0.224576 1.000000
vt 0.280244 1.000000
vt 0.607327 0.000000
vt 0.556572 1.000000
vt 0.525386 1.000000
vt 0.576676 1.000000
vt 0.592949 1.000000
vt 0.671658 0.000000
vt 0.633444 1.000000
vt 0.620689 1.000000
vt 0.646003 1.000000
vt 0.658665 1.000000
vt 1.000000 0.500000
vt 0.786866 0.000000
vt 1.000000 0.166697
vt 1.000000 0.333303
vt 0.718162 1.000000
vt 0.685327 1.000000
vt 0.700326 1.000000
vt 1.000000 0.666697
vt 0.742032 1.000000
vt 1.000000 0.833303
vn 0.000000 1.000000 0.000000
vn -0.925122 0.379650 -0.003758
vn -0.465613 0.379648 0.799419
vn -0.500880 -0.007979 0.865480
vn -0.999967 -0.007986 -0.001316
vn -0.501144 -0.009882 0.865307
vn -0.306888 0.670547 0.675416
vn -0.738029 0.670930 0.071873
vn -0.432344 0.393799 0.811173
vn 0.306888 0.670547 -0.675416
vn 0.738029 0.670930 -0.071873
vn 0.432344 0.393800 -0.811172
vn 0.487214 -0.351868 -0.799257
vn 0.935742 -0.351961 0.022587
vn 0.261542 -0.899685 -0.349519
vn -0.433364 -0.899716 -0.052031
vn -0.935742 -0.351962 -0.022587
vn -0.448172 -0.351829 -0.821802
vn 0.000000 -1.000000 0.000000
vn -0.171626 -0.899677 -0.401406
vn 0.433364 -0.899716 0.052031
vn -0.918596 0.393981 0.031000
vn -0.431097 0.670571 -0.603730
vn -0.998833 0.048036 0.005056
vn -0.503558 0.048001 -0.862627
vn -0.485919 0.393828 -0.780245
vn 0.494822 0.047997 -0.867668
vn 0.998833 0.048036 -0.005056
vn 0.918596 0.393981 -0.031000
vn -0.261542 -0.899685 0.349519
vn -0.487214 -0.351867 0.799257
vn 0.448172 -0.351830 0.821801
vn 0.171626 -0.899677 0.401406
vn 0.431096 0.670571 0.603730
vn 0.503558 0.048000 0.862627
vn 0.485919 0.393827 0.780245
vn -0.494822 0.047998 0.867668
vn 0.500880 -0.007979 -0.865480
vn 0.999967 -0.007986 0.001316
vn 0.501144 -0.009882 -0.865307
vn 0.502457 -0.019578 -0.864380
vn 0.999803 -0.019595 0.003237
vn 0.453970 0.233477 -0.859884
vn -0.971611 0.233734 0.036603
vn -0.999803 -0.019596 -0.003236
vn -0.496866 -0.019578 -0.867607
vn -0.517198 0.233499 -0.823398
vn 0.971611 0.233734 -0.036604
vn -0.999950 -0.009892 -0.001632
vn -0.498607 -0.007980 -0.866791
vn -0.999903 -0.013735 -0.002263
vn -0.497758 -0.013723 -0.867208
vn -0.498326 -0.009882 -0.866934
vn 0.501666 -0.013723 -0.864953
vn 0.999903 -0.013736 0.002263
vn 0.999950 -0.009891 0.001631
vn -0.453969 0.233477 0.859884
vn -0.502457 -0.019578 0.864380
vn 0.496866 -0.019577 0.867606
vn 0.517198 0.233499 0.823398
vn 0.498607 -0.007980 0.866791
vn 0.497757 -0.013723 0.867208
vn 0.498326 -0.009883 0.866934
vn -0.501667 -0.013723 0.864952
vn -0.500829 -0.007686 0.865512
vn -0.999970 -0.007692 -0.001255
vn -0.500719 -0.006872 0.865582
vn 0.500829 -0.007686 -0.865512
vn 0.999970 -0.007692 0.001255
vn 0.500719 -0.006872 -0.865582
vn 0.500679 -0.006557 -0.865608
vn 0.999978 -0.006563 0.001076
vn 0.500742 -0.006999 -0.865569
vn -0.999975 -0.007006 -0.001151
vn -0.999978 -0.006563 -0.001077
vn -0.498819 -0.006557 -0.866681
vn -0.498752 -0.007000 -0.866716
vn 0.999975 -0.007006 0.001151
vn -0.999976 -0.006878 -0.001125
vn -0.498660 -0.007685 -0.866764
vn -0.999978 -0.006528 -0.001069
vn -0.498825 -0.006522 -0.866678
vn -0.498776 -0.006872 -0.866704
vn 0.500673 -0.006522 -0.865612
vn 0.999978 -0.006528 0.001069
vn 0.999976 -0.006879 0.001125
vn -0.500742 -0.007000 0.865569
vn -0.500679 -0.006557 0.865608
vn 0.498819 -0.006557 0.866681
vn 0.498752 -0.007000 0.866716
vn 0.498660 -0.007686 0.866764
vn 0.498825 -0.006521 0.866678
vn 0.498776 -0.006872 0.866704
vn -0.500673 -0.006522 0.865612
vn 0.925123 0.379650 0.003758
vn 0.465613 0.379648 -0.799419
vn 0.502190 -0.017913 -0.864572
vn 0.999835 -0.017929 0.002909
vn 0.501429 -0.012137 -0.865114
vn -0.999924 -0.012148 -0.001977
vn -0.999835 -0.017928 -0.002909
vn -0.497165 -0.017913 -0.867471
vn -0.999956 -0.009211 -0.001499
vn -0.498443 -0.009202 -0.866874
vn -0.498015 -0.012137 -0.867084
vn 0.501033 -0.009203 -0.865379
vn 0.999956 -0.009212 0.001499
vn 0.999924 -0.012148 0.001976
vn -0.459122 0.379651 -0.803164
vn -0.999637 -0.026597 -0.004283
vn -0.495879 -0.026573 -0.867985
vn 0.503278 -0.026573 -0.863716
vn 0.999637 -0.026597 0.004283
vn -0.501429 -0.012137 0.865114
vn -0.502189 -0.017912 0.864572
vn 0.497165 -0.017913 0.867471
vn 0.498443 -0.009202 0.866874
vn 0.498015 -0.012137 0.867084
vn -0.501033 -0.009203 0.865379
vn 0.459122 0.379651 0.803164
vn 0.495879 -0.026573 0.867985
vn -0.503278 -0.026573 0.863716
s 1
g nurbsToPoly4
usemtl initialShadingGroup
f 121/121/1 106/106/2 122/122/3
f 60/60/4 1/1/5 61/61/6
f 31/31/7 2/2/8 32/32/9
f 19/19/10 3/3/11 20/20/12
f 9/9/13 5/5/14 10/10/15
f 7/7/16 4/4/17 6/6/18
f 24/24/19 7/7/16 8/8/20
f 6/6/18 9/9/13 8/8/20
f 10/10/15 24/123/19 8/8/20
f 11/11/21 24/124/19 10/10/15
f 15/15/22 2/125/8 12/12/23
f 4/4/17 13/13/24 14/14/25
f 13/13/24 15/15/22 16/16/26
f 9/9/13 18/18/27 17/17/28
f 6/6/18 14/14/25 18/18/27
f 12/12/23 19/19/10 16/16/26
f 14/14/25 16/16/26 20/20/12
f 18/18/27 20/20/12 21/21/29
f 26/26/30 25/25/31 4/126/17
f 11/11/21 5/5/14 22/22/32
f 24/127/19 11/11/21 23/23/33
f 23/23/33 22/22/32 25/25/31
f 24/128/19 23/23/33 26/26/30
f 7/129/16 24/130/19 26/26/30
f 3/3/11 27/27/34 21/21/29
f 5/5/14 17/17/28 28/28/35
f 17/17/28 21/21/29 29/29/36
f 25/25/31 30/30/37 13/131/24
f 22/22/32 28/28/35 30/30/37
f 27/27/34 31/31/7 29/29/36
f 28/28/35 29/29/36 32/32/9
f 30/30/37 32/32/9 15/132/22
f 49/49/38 33/33/39 50/50/40
f 39/39/41 35/35/42 40/40/43
f 37/37/44 34/34/45 36/36/46
f 2/125/8 37/37/44 38/38/47
f 36/36/46 39/39/41 38/38/47
f 12/12/23 38/38/47 40/40/43
f 19/19/10 40/40/43 41/41/48
f 45/45/49 1/133/5 42/42/50
f 34/34/45 43/43/51 44/44/52
f 43/43/51 45/45/49 46/46/53
f 39/39/41 48/48/54 47/47/55
f 36/36/46 44/44/52 48/48/54
f 42/42/50 49/49/38 46/46/53
f 44/44/52 46/46/53 50/50/40
f 48/48/54 50/50/40 51/51/56
f 55/55/57 54/54/58 34/134/45
f 41/41/48 35/35/42 52/52/59
f 3/3/11 41/41/48 53/53/60
f 53/53/60 52/52/59 54/54/58
f 27/27/34 53/53/60 55/55/57
f 31/31/7 55/55/57 37/135/44
f 33/33/39 56/56/61 51/51/56
f 35/35/42 47/47/55 57/57/62
f 47/47/55 51/51/56 58/58/63
f 54/54/58 59/59/64 43/136/51
f 52/52/59 57/57/62 59/59/64
f 56/56/61 60/60/4 58/58/63
f 57/57/62 58/58/63 61/61/6
f 59/59/64 61/61/6 45/137/49
f 90/90/65 62/62/66 91/91/67
f 79/79/68 63/63/69 80/80/70
f 69/69/71 65/65/72 70/70/73
f 67/67/74 64/64/75 66/66/76
f 1/133/5 67/67/74 68/68/77
f 66/66/76 69/69/71 68/68/77
f 42/42/50 68/68/77 70/70/73
f 49/49/38 70/70/73 71/71/78
f 75/75/79 62/138/66 72/72/80
f 64/64/75 73/73/81 74/74/82
f 73/73/81 75/75/79 76/76/83
f 69/69/71 78/78/84 77/77/85
f 66/66/76 74/74/82 78/78/84
f 72/72/80 79/79/68 76/76/83
f 74/74/82 76/76/83 80/80/70
f 78/78/84 80/80/70 81/81/86
f 85/85/87 84/84/88 64/139/75
f 71/71/78 65/65/72 82/82/89
f 33/33/39 71/71/78 83/83/90
f 83/83/90 82/82/89 84/84/88
f 56/56/61 83/83/90 85/85/87
f 60/60/4 85/85/87 67/140/74
f 63/63/69 86/86/91 81/81/86
f 65/65/72 77/77/85 87/87/92
f 77/77/85 81/81/86 88/88/93
f 84/84/88 89/89/94 73/141/81
f 82/82/89 87/87/92 89/89/94
f 86/86/91 90/90/65 88/88/93
f 87/87/92 88/88/93 91/91/67
f 89/89/94 91/91/67 75/142/79
f 121/143/1 111/111/95 110/110/96
f 101/101/97 93/93/98 102/102/99
f 97/97/100 92/92/101 94/94/102
f 62/138/66 95/95/103 96/96/104
f 95/95/103 97/97/100 98/98/105
f 79/79/68 100/100/106 99/99/107
f 72/72/80 96/96/104 100/100/106
f 94/94/102 101/101/97 98/98/105
f 96/96/104 98/98/105 102/102/99
f 100/100/106 102/102/99 103/103/108
f 106/144/2 121/145/1 107/107/109
f 92/92/101 104/104/110 105/105/111
f 104/104/110 106/144/2 107/107/109
f 101/101/97 109/109/112 108/108/113
f 94/94/102 105/105/111 109/109/112
f 121/146/1 110/110/96 107/107/109
f 105/105/111 107/107/109 110/110/96
f 109/109/112 110/110/96 111/111/95
f 117/117/114 116/116/115 92/147/101
f 103/103/108 93/93/98 112/112/116
f 63/63/69 99/99/107 113/113/117
f 99/99/107 103/103/108 114/114/118
f 90/90/65 115/115/119 95/148/103
f 86/86/91 113/113/117 115/115/119
f 114/114/118 112/112/116 116/116/115
f 113/113/117 114/114/118 117/117/114
f 115/115/119 117/117/114 97/149/100
f 121/150/1 119/119/120 111/111/95
f 93/93/98 108/108/113 118/118/121
f 108/108/113 111/111/95 119/119/120
f 116/116/115 120/120/122 104/151/110
f 112/112/116 118/118/121 120/120/122
f 121/152/1 122/122/3 119/119/120
f 118/118/121 119/119/120 122/122/3
f 120/120/122 122/122/3 106/106/2
f 1/1/5 45/137/49 61/61/6
f 2/2/8 15/132/22 32/32/9
f 3/3/11 21/21/29 20/20/12
f 5/5/14 11/11/21 10/10/15
f 6/6/18 8/8/20 7/7/16
f 9/9/13 10/10/15 8/8/20
f 12/12/23 16/16/26 15/15/22
f 14/14/25 6/6/18 4/4/17
f 16/16/26 14/14/25 13/13/24
f 17/17/28 5/5/14 9/9/13
f 18/18/27 9/9/13 6/6/18
f 19/19/10 20/20/12 16/16/26
f 20/20/12 18/18/27 14/14/25
f 21/21/29 17/17/28 18/18/27
f 4/126/17 7/129/16 26/26/30
f 22/22/32 23/23/33 11/11/21
f 25/25/31 26/26/30 23/23/33
f 27/27/34 29/29/36 21/21/29
f 28/28/35 22/22/32 5/5/14
f 29/29/36 28/28/35 17/17/28
f 13/131/24 4/126/17 25/25/31
f 30/30/37 25/25/31 22/22/32
f 31/31/7 32/32/9 29/29/36
f 32/32/9 30/30/37 28/28/35
f 15/132/22 13/131/24 30/30/37
f 33/33/39 51/51/56 50/50/40
f 35/35/42 41/41/48 40/40/43
f 36/36/46 38/38/47 37/37/44
f 38/38/47 12/12/23 2/125/8
f 39/39/41 40/40/43 38/38/47
f 40/40/43 19/19/10 12/12/23
f 41/41/48 3/3/11 19/19/10
f 42/42/50 46/46/53 45/45/49
f 44/44/52 36/36/46 34/34/45
f 46/46/53 44/44/52 43/43/51
f 47/47/55 35/35/42 39/39/41
f 48/48/54 39/39/41 36/36/46
f 49/49/38 50/50/40 46/46/53
f 50/50/40 48/48/54 44/44/52
f 51/51/56 47/47/55 48/48/54
f 34/134/45 37/135/44 55/55/57
f 52/52/59 53/53/60 41/41/48
f 53/53/60 27/27/34 3/3/11
f 54/54/58 55/55/57 53/53/60
f 55/55/57 31/31/7 27/27/34
f 37/135/44 2/2/8 31/31/7
f 56/56/61 58/58/63 51/51/56
f 57/57/62 52/52/59 35/35/42
f 58/58/63 57/57/62 47/47/55
f 43/136/51 34/134/45 54/54/58
f 59/59/64 54/54/58 52/52/59
f 60/60/4 61/61/6 58/58/63
f 61/61/6 59/59/64 57/57/62
f 45/137/49 43/136/51 59/59/64
f 62/62/66 75/142/79 91/91/67
f 63/63/69 81/81/86 80/80/70
f 65/65/72 71/71/78 70/70/73
f 66/66/76 68/68/77 67/67/74
f 68/68/77 42/42/50 1/133/5
f 69/69/71 70/70/73 68/68/77
f 70/70/73 49/49/38 42/42/50
f 71/71/78 33/33/39 49/49/38
f 72/72/80 76/76/83 75/75/79
f 74/74/82 66/66/76 64/64/75
f 76/76/83 74/74/82 73/73/81
f 77/77/85 65/65/72 69/69/71
f 78/78/84 69/69/71 66/66/76
f 79/79/68 80/80/70 76/76/83
f 80/80/70 78/78/84 74/74/82
f 81/81/86 77/77/85 78/78/84
f 64/139/75 67/140/74 85/85/87
f 82/82/89 83/83/90 71/71/78
f 83/83/90 56/56/61 33/33/39
f 84/84/88 85/85/87 83/83/90
f 85/85/87 60/60/4 56/56/61
f 67/140/74 1/1/5 60/60/4
f 86/86/91 88/88/93 81/81/86
f 87/87/92 82/82/89 65/65/72
f 88/88/93 87/87/92 77/77/85
f 73/141/81 64/139/75 84/84/88
f 89/89/94 84/84/88 82/82/89
f 90/90/65 91/91/67 88/88/93
f 91/91/67 89/89/94 87/87/92
f 75/142/79 73/141/81 89/89/94
f 93/93/98 103/103/108 102/102/99
f 94/94/102 98/98/105 97/97/100
f 96/96/104 72/72/80 62/138/66
f 98/98/105 96/96/104 95/95/103
f 99/99/107 63/63/69 79/79/68
f 100/100/106 79/79/68 72/72/80
f 101/101/97 102/102/99 98/98/105
f 102/102/99 100/100/106 96/96/104
f 103/103/108 99/99/107 100/100/106
f 105/105/111 94/94/102 92/92/101
f 107/107/109 105/105/111 104/104/110
f 108/108/113 93/93/98 101/101/97
f 109/109/112 101/101/97 94/94/102
f 110/110/96 109/109/112 105/105/111
f 111/111/95 108/108/113 109/109/112
f 92/147/101 97/149/100 117/117/114
f 112/112/116 114/114/118 103/103/108
f 113/113/117 86/86/91 63/63/69
f 114/114/118 113/113/117 99/99/107
f 95/148/103 62/62/66 90/90/65
f 115/115/119 90/90/65 86/86/91
f 116/116/115 117/117/114 114/114/118
f 117/117/114 115/115/119 113/113/117
f 97/149/100 95/148/103 115/115/119
f 118/118/121 112/112/116 93/93/98
f 119/119/120 118/118/121 108/108/113
f 104/151/110 92/147/101 116/116/115
f 120/120/122 116/116/115 112/112/116
f 122/122/3 120/120/122 118/118/121
f 106/106/2 104/151/110 120/120/122
